<svg xmlns="http://www.w3.org/2000/svg" xmlns:svg="http://www.w3.org/2000/svg" xmlns:xlink="http://www.w3.org/1999/xlink" id="svg1" width="48" height="48" version="1.1" viewBox="0 0 12.7 12.7" xml:space="preserve"><defs id="defs1"><linearGradient id="linearGradient6"><stop style="stop-color:#fddb6f;stop-opacity:1" id="stop7" offset="0"/><stop style="stop-color:#f99b02;stop-opacity:1" id="stop6" offset="1"/></linearGradient><linearGradient id="linearGradient7" x1="3.367" x2="9.428" y1="5.894" y2="10.744" gradientTransform="translate(-0.0920289,-0.2079015)" gradientUnits="userSpaceOnUse" xlink:href="#linearGradient6"/><filter style="color-interpolation-filters:sRGB" id="filter255" width="1.154" height="1.094" x="-.074" y="-.04"><feFlood id="feFlood254" flood-color="#000" flood-opacity=".498" in="SourceGraphic" result="flood"/><feGaussianBlur id="feGaussianBlur254" in="SourceGraphic" result="blur" stdDeviation=".26"/><feOffset id="feOffset254" dx=".3" dy=".3" in="blur" result="offset"/><feComposite id="feComposite254" in="flood" in2="offset" operator="in" result="comp1"/><feComposite id="feComposite255" in="SourceGraphic" in2="comp1" operator="over" result="fbSourceGraphic"/><feColorMatrix id="feColorMatrix255" in="fbSourceGraphic" result="fbSourceGraphicAlpha" values="0 0 0 -1 0 0 0 0 -1 0 0 0 0 -1 0 0 0 0 1 0"/><feFlood id="feFlood255" flood-color="#000" flood-opacity=".498" in="fbSourceGraphic" result="flood"/><feGaussianBlur id="feGaussianBlur255" in="fbSourceGraphic" result="blur" stdDeviation=".3"/><feOffset id="feOffset255" dx=".3" dy=".3" in="blur" result="offset"/><feComposite id="feComposite256" in="flood" in2="offset" operator="in" result="comp1"/><feComposite id="feComposite257" in="fbSourceGraphic" in2="comp1" operator="over" result="fbSourceGraphic"/><feColorMatrix id="feColorMatrix40" in="fbSourceGraphic" result="fbSourceGraphicAlpha" values="0 0 0 -1 0 0 0 0 -1 0 0 0 0 -1 0 0 0 0 1 0"/><feFlood id="feFlood40" flood-color="#000" flood-opacity=".498" in="fbSourceGraphic" result="flood"/><feGaussianBlur id="feGaussianBlur40" in="fbSourceGraphic" result="blur" stdDeviation=".2"/><feOffset id="feOffset40" dx="-.4" dy="0" in="blur" result="offset"/><feComposite id="feComposite40" in="flood" in2="offset" operator="in" result="comp1"/><feComposite id="feComposite41" in="fbSourceGraphic" in2="comp1" operator="over" result="comp2"/></filter></defs><g id="layer2" style="display:none"><path id="path1" d="M 10.632813,0.63281251 10.273438,0.79882814 C 9.7552146,1.0386096 9.3308335,1.4418925 9.1191407,1.8964844 L 8.9335939,2.2929688 V 23.962891 c -8.488e-4,23.815884 -0.040015,21.990859 0.4746093,22.640625 0.1401686,0.176978 0.4443417,0.405848 0.7265628,0.546875 l 0.486328,0.242188 13.839844,-0.01953 13.839844,-0.02148 0.382812,-0.195312 c 0.450227,-0.229967 0.800027,-0.605742 1.03125,-1.105469 l 0.166016,-0.359381 c 0,0 0.0027,-13.848765 -0.0049,-26.098051 -2.54e-4,-0.408925 -0.0014,-1.071921 -0.0026,-1.480844 -0.01769,-6.361443 -0.01672,-9.287438 -0.01291,-10.6188027 0.0017,-0.5982231 -0.351906,-1.4096988 -0.794314,-1.8125022 L 37.978875,4.6912755 C 37.131633,3.9198793 36.286054,3.1466583 35.442144,2.371618 L 34.814695,1.7953743 C 34.000575,1.0476931 32.935477,0.63281259 31.830118,0.63281251 h -7.443399 z" transform="matrix(0.26458333,0,0,0.24616032,0,0.36538222)" style="display:inline;opacity:1;mix-blend-mode:hard-light;fill:#dae2e1;fill-opacity:.03;stroke:#000;stroke-width:.129593;stroke-linecap:round;stroke-linejoin:round;stroke-dasharray:none;stroke-dashoffset:0;stroke-opacity:1;paint-order:markers stroke fill;filter:url(#filter255)"/></g><g id="layer1" style="display:inline"><g id="layer4"><rect style="display:inline;opacity:1;fill:url(#linearGradient7);fill-opacity:1;stroke:#000;stroke-width:.1;stroke-dasharray:none;stroke-opacity:1" id="rect2" width="6.149" height="6.045" x="3.275" y="5.397" rx=".714" ry=".714"/></g><g id="layer5"><g id="g99" transform="translate(-0.0920289,-0.2079015)" style="display:inline;stroke:#000;stroke-opacity:.497481"><path style="opacity:1;fill:#000;fill-opacity:1;stroke:#000;stroke-width:.0986158;stroke-dasharray:none;stroke-opacity:.497481" id="path92" d="M 9.4721828,7.5406144 4.8154166,7.5141771"/><path style="opacity:1;fill:#000;fill-opacity:1;stroke:#000;stroke-width:.1;stroke-dasharray:none;stroke-opacity:.497481" id="path93" d="m 4.8579314,5.6356249 v 1.905"/><path style="opacity:1;fill:#000;fill-opacity:1;stroke:#000;stroke-width:.1;stroke-dasharray:none;stroke-opacity:.497481" id="path94" d="m 6.4420291,5.6054015 v 1.905"/><path style="opacity:1;fill:#000;fill-opacity:1;stroke:#000;stroke-width:.1;stroke-dasharray:none;stroke-opacity:.497481" id="path95" d="m 8.0434173,5.6054015 v 1.905"/><path style="opacity:1;fill:#000;fill-opacity:1;stroke:#000;stroke-width:.113322;stroke-dasharray:none;stroke-opacity:.497481" id="path96" d="M 9.5166337,9.496292 3.3674242,9.4698547"/><path style="opacity:1;fill:#000;fill-opacity:1;stroke:#000;stroke-width:.106823;stroke-dasharray:none;stroke-opacity:.497481" id="path97" d="M 4.840641,9.4761885 V 11.650033"/><path style="opacity:1;fill:#000;fill-opacity:1;stroke:#000;stroke-width:.106823;stroke-dasharray:none;stroke-opacity:.497481" id="path98" d="M 6.442029,9.4830734 V 11.656918"/><path style="opacity:1;fill:#000;fill-opacity:1;stroke:#000;stroke-width:.106823;stroke-dasharray:none;stroke-opacity:.497481" id="path99" d="M 8.0858406,9.4901406 V 11.663985"/></g></g></g><g id="layer6" style="display:inline"><text style="font-style:normal;font-variant:normal;font-weight:400;font-stretch:normal;font-size:3.175px;font-family:Calibri;-inkscape-font-specification:Calibri;text-align:start;writing-mode:lr-tb;direction:ltr;text-anchor:start;opacity:1;fill:#a5a5a5;fill-opacity:1;stroke:#000;stroke-width:.007;stroke-dasharray:none;stroke-opacity:1" id="text259" x="3.583" y="4.364" xml:space="preserve"><tspan id="tspan259" x="3.583" y="4.364" style="font-style:normal;font-variant:normal;font-weight:700;font-stretch:normal;font-family:Arial;-inkscape-font-specification:'Arial Bold';fill:#a5a5a5;fill-opacity:1;stroke-width:.007">SIM</tspan></text></g><g id="layer3"><path id="rect1" d="m 2.8938806,0.51263022 h 5.7550292 c 0.3592961,0 1.8848132,1.27344438 1.8848132,1.59990278 v 9.471254 c 0,0.24202 -0.196196,0.438217 -0.438216,0.438217 H 2.8401371 c -0.2534363,0 -0.4588871,-0.205451 -0.4588872,-0.458887 V 1.0252609 c 0,-0.28311811 0.2295126,-0.51263068 0.5126307,-0.51263068 z" transform="matrix(1.0020284,0,0,1,-0.00483012,0)" style="display:inline;fill:#d8d8d8;fill-opacity:.24851485;stroke:#262626;stroke-width:.13876559;stroke-linecap:round;stroke-linejoin:round;stroke-dasharray:none;stroke-opacity:1;paint-order:fill markers stroke"/></g></svg>